<mxfile host="app.diagrams.net" agent="Mozilla/5.0 (Macintosh; Intel Mac OS X 10_15_7) AppleWebKit/537.36 (KHTML, like Gecko) Chrome/130.0.0.0 Safari/537.36" version="24.8.0">
  <diagram name="Page-1" id="VfDq1mur64e9aSF092ui">
    <mxGraphModel dx="986" dy="789" grid="1" gridSize="10" guides="1" tooltips="1" connect="1" arrows="1" fold="1" page="1" pageScale="1" pageWidth="827" pageHeight="1169" math="0" shadow="0">
      <root>
        <mxCell id="0" />
        <mxCell id="1" parent="0" />
        <mxCell id="3N6ceQ4c795ROFLi5ZXj-1" value="VPC" style="sketch=0;outlineConnect=0;gradientColor=none;html=1;whiteSpace=wrap;fontSize=12;fontStyle=0;shape=mxgraph.aws4.group;grIcon=mxgraph.aws4.group_vpc;strokeColor=#879196;fillColor=none;verticalAlign=top;align=left;spacingLeft=30;fontColor=#879196;dashed=0;" vertex="1" parent="1">
          <mxGeometry x="240" y="270" width="530" height="210" as="geometry" />
        </mxCell>
        <mxCell id="3N6ceQ4c795ROFLi5ZXj-2" value="Redis prod" style="image;sketch=0;aspect=fixed;html=1;points=[];align=center;fontSize=12;image=img/lib/mscae/Cache_Redis_Product.svg;" vertex="1" parent="1">
          <mxGeometry x="650" y="300" width="50" height="42" as="geometry" />
        </mxCell>
        <mxCell id="3N6ceQ4c795ROFLi5ZXj-3" value="Redis cache prod" style="image;sketch=0;aspect=fixed;html=1;points=[];align=center;fontSize=12;image=img/lib/mscae/Cache_Redis_Product.svg;" vertex="1" parent="1">
          <mxGeometry x="650" y="400" width="50" height="42" as="geometry" />
        </mxCell>
        <mxCell id="3N6ceQ4c795ROFLi5ZXj-4" value="AWS prod cluster" style="aspect=fixed;sketch=0;html=1;dashed=0;whitespace=wrap;verticalLabelPosition=bottom;verticalAlign=top;fillColor=#2875E2;strokeColor=#ffffff;points=[[0.005,0.63,0],[0.1,0.2,0],[0.9,0.2,0],[0.5,0,0],[0.995,0.63,0],[0.72,0.99,0],[0.5,1,0],[0.28,0.99,0]];shape=mxgraph.kubernetes.icon2;prIcon=pod" vertex="1" parent="1">
          <mxGeometry x="280" y="317" width="110.42" height="106" as="geometry" />
        </mxCell>
        <mxCell id="3N6ceQ4c795ROFLi5ZXj-5" value="Redis proxy&lt;br&gt;(with HAProxy)" style="image;html=1;image=img/lib/clip_art/computers/Server_128x128.png" vertex="1" parent="1">
          <mxGeometry x="500" y="545" width="80" height="80" as="geometry" />
        </mxCell>
        <mxCell id="3N6ceQ4c795ROFLi5ZXj-7" style="edgeStyle=orthogonalEdgeStyle;rounded=0;orthogonalLoop=1;jettySize=auto;html=1;entryX=0;entryY=0.5;entryDx=0;entryDy=0;" edge="1" parent="1" source="3N6ceQ4c795ROFLi5ZXj-6" target="3N6ceQ4c795ROFLi5ZXj-5">
          <mxGeometry relative="1" as="geometry" />
        </mxCell>
        <mxCell id="3N6ceQ4c795ROFLi5ZXj-6" value="DO prod cluster&lt;br&gt;(with checkouts)" style="aspect=fixed;sketch=0;html=1;dashed=0;whitespace=wrap;verticalLabelPosition=bottom;verticalAlign=top;fillColor=#2875E2;strokeColor=#ffffff;points=[[0.005,0.63,0],[0.1,0.2,0],[0.9,0.2,0],[0.5,0,0],[0.995,0.63,0],[0.72,0.99,0],[0.5,1,0],[0.28,0.99,0]];shape=mxgraph.kubernetes.icon2;prIcon=pod" vertex="1" parent="1">
          <mxGeometry x="280" y="532" width="110.42" height="106" as="geometry" />
        </mxCell>
        <mxCell id="3N6ceQ4c795ROFLi5ZXj-8" style="edgeStyle=orthogonalEdgeStyle;rounded=0;orthogonalLoop=1;jettySize=auto;html=1;entryX=0;entryY=0.571;entryDx=0;entryDy=0;entryPerimeter=0;" edge="1" parent="1" source="3N6ceQ4c795ROFLi5ZXj-4" target="3N6ceQ4c795ROFLi5ZXj-2">
          <mxGeometry relative="1" as="geometry" />
        </mxCell>
        <mxCell id="3N6ceQ4c795ROFLi5ZXj-9" style="edgeStyle=orthogonalEdgeStyle;rounded=0;orthogonalLoop=1;jettySize=auto;html=1;entryX=0.04;entryY=0.524;entryDx=0;entryDy=0;entryPerimeter=0;" edge="1" parent="1" source="3N6ceQ4c795ROFLi5ZXj-4" target="3N6ceQ4c795ROFLi5ZXj-3">
          <mxGeometry relative="1" as="geometry" />
        </mxCell>
        <mxCell id="3N6ceQ4c795ROFLi5ZXj-10" style="edgeStyle=orthogonalEdgeStyle;rounded=0;orthogonalLoop=1;jettySize=auto;html=1;entryX=1;entryY=0.524;entryDx=0;entryDy=0;entryPerimeter=0;" edge="1" parent="1" source="3N6ceQ4c795ROFLi5ZXj-5" target="3N6ceQ4c795ROFLi5ZXj-2">
          <mxGeometry relative="1" as="geometry" />
        </mxCell>
        <mxCell id="3N6ceQ4c795ROFLi5ZXj-11" style="edgeStyle=orthogonalEdgeStyle;rounded=0;orthogonalLoop=1;jettySize=auto;html=1;entryX=0.98;entryY=0.476;entryDx=0;entryDy=0;entryPerimeter=0;" edge="1" parent="1" source="3N6ceQ4c795ROFLi5ZXj-5" target="3N6ceQ4c795ROFLi5ZXj-3">
          <mxGeometry relative="1" as="geometry" />
        </mxCell>
      </root>
    </mxGraphModel>
  </diagram>
</mxfile>
